<?xml version="1.0" standalone="no"?><!DOCTYPE svg PUBLIC "-//W3C//DTD SVG 1.1//EN" "http://www.w3.org/Graphics/SVG/1.1/DTD/svg11.dtd"><svg t="1598746670137" class="icon" viewBox="0 0 1097 1024" version="1.1" xmlns="http://www.w3.org/2000/svg" p-id="8117" xmlns:xlink="http://www.w3.org/1999/xlink" width="214.2578125" height="200"><defs><style type="text/css"></style></defs><path d="M285.257143 256v-219.428571c0-21.942857 21.942857-36.571429 36.571428-36.571429s36.571429 14.628571 36.571429 36.571429v219.428571c0 21.942857-14.628571 36.571429-36.571429 36.571429s-36.571429-14.628571-36.571428-36.571429z m475.428571 36.571429c21.942857 0 36.571429-14.628571 36.571429-36.571429v-219.428571c0-21.942857-14.628571-36.571429-36.571429-36.571429s-36.571429 14.628571-36.571428 36.571429v219.428571c0 21.942857 21.942857 36.571429 36.571428 36.571429z m299.885715-219.428572h-146.285715c-21.942857 0-36.571429 14.628571-36.571428 36.571429s14.628571 36.571429 36.571428 36.571428H1024v804.571429H73.142857V146.285714h109.714286c21.942857 0 36.571429-14.628571 36.571428-36.571428S204.8 73.142857 182.857143 73.142857h-146.285714c-21.942857 0-36.571429 14.628571-36.571429 36.571429v877.714285c0 21.942857 14.628571 36.571429 36.571429 36.571429h1024c21.942857 0 36.571429-14.628571 36.571428-36.571429v-877.714285c0-21.942857-14.628571-36.571429-36.571428-36.571429zM468.114286 146.285714h146.285714c21.942857 0 36.571429-14.628571 36.571429-36.571428S636.342857 73.142857 614.4 73.142857h-146.285714c-14.628571 0-36.571429 14.628571-36.571429 36.571429s21.942857 36.571429 36.571429 36.571428zM256 548.571429h585.142857c21.942857 0 36.571429-14.628571 36.571429-36.571429s-14.628571-36.571429-36.571429-36.571429h-585.142857c-21.942857 0-36.571429 14.628571-36.571429 36.571429s14.628571 36.571429 36.571429 36.571429z m585.142857 146.285714h-585.142857c-21.942857 0-36.571429 14.628571-36.571429 36.571428s14.628571 36.571429 36.571429 36.571429h585.142857c21.942857 0 36.571429-14.628571 36.571429-36.571429s-14.628571-36.571429-36.571429-36.571428z" p-id="8118"></path></svg>