<?xml version="1.0" standalone="no"?><!DOCTYPE svg PUBLIC "-//W3C//DTD SVG 1.1//EN" "http://www.w3.org/Graphics/SVG/1.1/DTD/svg11.dtd"><svg t="1598746685190" class="icon" viewBox="0 0 1024 1024" version="1.1" xmlns="http://www.w3.org/2000/svg" p-id="8454" xmlns:xlink="http://www.w3.org/1999/xlink" width="200" height="200"><defs><style type="text/css"></style></defs><path d="M960 1024H64a64 64 0 0 1-64-64V128a64 64 0 0 1 64-64h64v128a64 64 0 0 0 64 64h64a64 64 0 0 0 64-64V64h384v128a64 64 0 0 0 64 64h64a64 64 0 0 0 64-64V64h64a64 64 0 0 1 64 64v832a64 64 0 0 1-64 64zM896 320H128v640h768V320zM448 448l64 192 64-192h128l128 384h-128l-64-192-64 192H448l-64-192-64 192H192l128-384h128z m320-256V0h64v192h-64zM192 192V0h64v192H192z" p-id="8455"></path></svg>