<?xml version="1.0" standalone="no"?><!DOCTYPE svg PUBLIC "-//W3C//DTD SVG 1.1//EN" "http://www.w3.org/Graphics/SVG/1.1/DTD/svg11.dtd"><svg t="1598746648757" class="icon" viewBox="0 0 1024 1024" version="1.1" xmlns="http://www.w3.org/2000/svg" p-id="7285" xmlns:xlink="http://www.w3.org/1999/xlink" width="200" height="200"><defs><style type="text/css"></style></defs><path d="M245.4528 10.24h534.9888c78.45888 0 142.65344 64.2048 142.65344 142.66368V866.2016c0 78.45888-64.19456 142.65344-142.65344 142.65344H245.4528c-78.45888 0-142.65344-64.19456-142.65344-142.65344V152.8832C102.79936 74.4448 166.99392 10.24 245.4528 10.24z" fill="#B5F5EC" p-id="7286"></path><path d="M209.79712 10.24h606.3104c60.6208 0 106.98752 46.36672 106.98752 106.99776v606.3104L794.70592 862.63808l-139.10016 146.2272H209.79712c-60.63104 0-107.008-46.35648-107.008-106.98752V117.23776C102.79936 56.60672 149.17632 10.24 209.80736 10.24z" fill="#08979C" p-id="7287"></path><path d="M209.79712 10.24h606.3104c60.6208 0 106.98752 46.36672 106.98752 106.99776v606.3104H744.77568c-49.93024 0-89.16992 39.22944-89.16992 89.15968v196.15744H209.79712c-60.63104 0-107.008-46.35648-107.008-106.98752V117.23776C102.79936 56.60672 149.17632 10.24 209.80736 10.24z" fill="#36CFC9" p-id="7288"></path><path d="M270.42816 705.71008h481.4848c14.25408 0 28.52864-10.69056 28.52864-28.52864 0-14.26432-10.7008-28.52864-28.53888-28.52864h-481.4848c-14.26432 0-28.52864 10.7008-28.52864 28.52864 3.56352 17.83808 14.26432 28.52864 28.53888 28.52864z m0-142.65344h481.4848c14.25408 0 28.52864-10.7008 28.52864-28.53888 0-14.26432-10.7008-28.52864-28.53888-28.52864h-481.4848c-14.26432 0-28.52864 10.7008-28.52864 28.52864 3.56352 17.83808 14.26432 28.53888 28.53888 28.53888zM405.95456 217.09824l46.36672 167.6288 46.35648-167.6288h42.8032l46.36672 167.6288 46.36672-167.6288h49.93024l-78.46912 221.12256h-42.8032l-46.35648-164.05504-46.36672 164.05504h-42.8032l-71.3216-221.12256z" fill="#B5F5EC" p-id="7289"></path></svg>